<?xml version="1.0" encoding="utf-8"?>
<!-- Generator: Adobe Illustrator 16.0.0, SVG Export Plug-In . SVG Version: 6.00 Build 0)  -->
<!DOCTYPE svg PUBLIC "-//W3C//DTD SVG 1.1//EN" "http://www.w3.org/Graphics/SVG/1.1/DTD/svg11.dtd">
<svg version="1.1" id="Layer_1" xmlns="http://www.w3.org/2000/svg" xmlns:xlink="http://www.w3.org/1999/xlink" x="0px" y="0px"
	 width="16px" height="16px" viewBox="0 0 16 16" enable-background="new 0 0 16 16" xml:space="preserve">
<path fill-rule="evenodd" clip-rule="evenodd" fill="#1B9DFB" d="M6.691,7.572L5.63,4.892C5.386,4.277,4.686,3.975,4.072,4.217l0,0
	C3.459,4.459,3.155,5.162,3.4,5.776c0.324,0.819,0.753,2.165,1.186,2.936c0.24,0.429,0.5,0.783,0.769,0.783
	c0.224,0,0.52-0.389,0.628-0.548C6.267,8.541,6.496,8.045,6.691,7.572L6.691,7.572z M14.689,7.135L14.689,7.135
	c0.653,0,1.186,0.533,1.186,1.184l0,0c0,0.651-0.532,1.187-1.186,1.187l0,0c-0.648,0-1.181-0.535-1.181-1.187l0,0
	C13.509,7.668,14.041,7.135,14.689,7.135L14.689,7.135z M5.354,10.081c1.182,0,2.058-2.672,2.611-4.318
	C8.298,4.74,8.438,3.5,9.735,3.5h4.954c0.653,0,1.186,0.533,1.186,1.182c0,0.651-0.536,1.183-1.186,1.183h-1.033L13.14,7.17v0.006
	c-0.421,1.067-0.293,0.731-0.705,1.799c-0.364,0.909-0.701,1.883-1.418,2.578c-0.66,0.633-1.565,0.95-2.475,0.946
	c-0.284,0-0.569-0.029-0.845-0.089c0.192-0.128,0.372-0.272,0.54-0.433c0.797-0.776,1.157-1.778,1.555-2.789
	c0.236-0.599,0.468-1.2,0.704-1.801l0.049-0.128V7.257l0.501-1.264c0.015-0.042,0.031-0.084,0.044-0.128h-0.638L9.947,7.17
	l0.004,0.006c-0.42,1.067-0.292,0.731-0.704,1.799c-0.368,0.909-0.701,1.883-1.418,2.578c-0.661,0.633-1.566,0.95-2.475,0.946
	c-0.906,0.004-1.81-0.313-2.472-0.946C2.166,10.858,1.83,9.885,1.465,8.976C1.052,7.907,1.176,8.243,0.76,7.176V7.17L0.208,5.776
	c-0.24-0.614,0.061-1.317,0.677-1.56l0,0c0.613-0.242,1.314,0.06,1.554,0.675C2.943,6.163,3.928,10.081,5.354,10.081z"/>
</svg>
