<?xml version="1.0" encoding="utf-8"?>
<!-- Generator: Adobe Illustrator 16.0.0, SVG Export Plug-In . SVG Version: 6.00 Build 0)  -->
<!DOCTYPE svg PUBLIC "-//W3C//DTD SVG 1.1//EN" "http://www.w3.org/Graphics/SVG/1.1/DTD/svg11.dtd">
<svg version="1.1" id="Layer_1" xmlns="http://www.w3.org/2000/svg" xmlns:xlink="http://www.w3.org/1999/xlink" x="0px" y="0px"
	 width="140px" height="80px" viewBox="0 0 140 80" enable-background="new 0 0 140 80" xml:space="preserve">
<path fill-rule="evenodd" clip-rule="evenodd" fill="#1B9DFB" d="M58.371,36.191l-9.434-23.817c-2.171-5.47-8.4-8.157-13.852-6.004
	l0,0c-5.443,2.158-8.152,8.406-5.973,13.865c2.879,7.282,6.691,19.242,10.536,26.095c2.136,3.813,4.443,6.957,6.835,6.957
	c1.991,0,4.623-3.453,5.588-4.871C54.594,44.81,56.627,40.399,58.371,36.191L58.371,36.191z M129.463,32.31L129.463,32.31
	c5.803,0,10.537,4.734,10.537,10.517l0,0c0,5.794-4.734,10.544-10.537,10.544l0,0c-5.768,0-10.5-4.75-10.5-10.544l0,0
	C118.963,37.044,123.695,32.31,129.463,32.31L129.463,32.31z M46.484,58.499c10.502,0,18.295-23.755,23.208-38.383
	C72.649,11.019,73.889,0,85.424,0h44.039C135.266,0,140,4.734,140,10.501c0,5.787-4.768,10.521-10.537,10.521h-9.184l-4.598,11.604
	v0.051c-3.734,9.482-2.6,6.491-6.264,15.995c-3.238,8.085-6.23,16.731-12.604,22.919C90.943,77.212,82.902,80.033,74.82,80
	c-2.529,0-5.06-0.256-7.512-0.787c1.709-1.146,3.307-2.427,4.803-3.845c7.082-6.903,10.287-15.809,13.816-24.798
	c2.102-5.317,4.16-10.665,6.264-16.006l0.426-1.135v-0.033l4.453-11.237c0.137-0.367,0.281-0.744,0.393-1.137h-5.666l-4.484,11.604
	l0.033,0.051c-3.734,9.482-2.598,6.491-6.264,15.995c-3.273,8.085-6.228,16.731-12.603,22.919
	c-5.87,5.621-13.919,8.442-21.995,8.409c-8.049,0.033-16.089-2.788-21.969-8.409c-6.375-6.188-9.357-14.834-12.604-22.919
	c-3.666-9.504-2.563-6.513-6.263-15.995v-0.051L0.735,20.235C-1.401,14.775,1.273,8.528,6.751,6.37l0,0
	c5.452-2.152,11.681,0.534,13.817,6.004C25.054,23.671,33.804,58.499,46.484,58.499z"/>
</svg>
