<?xml version="1.0" encoding="utf-8"?>
<!-- Generator: Adobe Illustrator 16.0.0, SVG Export Plug-In . SVG Version: 6.00 Build 0)  -->
<!DOCTYPE svg PUBLIC "-//W3C//DTD SVG 1.0//EN" "http://www.w3.org/TR/2001/REC-SVG-20010904/DTD/svg10.dtd">
<svg version="1.0" id="Layer_1" xmlns="http://www.w3.org/2000/svg" xmlns:xlink="http://www.w3.org/1999/xlink" x="0px" y="0px"
	 width="440px" height="260px" viewBox="0 0 440 260" enable-background="new 0 0 440 260" xml:space="preserve">
<path fill="#FFFFFF" d="M185.113,118.574l-28.301-71.453c-6.512-16.411-25.199-24.469-41.555-18.012
	c-16.328,6.475-24.455,25.216-17.919,41.595c8.639,21.847,20.074,57.725,31.609,78.287c6.408,11.437,13.329,20.87,20.506,20.87
	c5.974,0,13.868-10.359,16.763-14.615C173.781,144.426,179.88,131.195,185.113,118.574L185.113,118.574z M398.388,106.93
	L398.388,106.93c17.408,0,31.612,14.203,31.612,31.55c0,17.383-14.204,31.633-31.612,31.633c-17.301,0-31.499-14.25-31.499-31.633
	C366.889,121.133,381.087,106.93,398.388,106.93L398.388,106.93z M149.453,185.497L149.453,185.497
	c31.506,0,54.884-71.267,69.625-115.15C227.945,43.056,231.664,10,266.271,10h132.116C415.796,10,430,24.201,430,41.503
	c0,17.359-14.305,31.563-31.612,31.563h-27.552l-13.793,34.814v0.151c-11.204,28.445-7.798,19.474-18.79,47.982
	c-9.716,24.256-18.692,50.195-37.813,68.756c-17.612,16.866-41.735,25.33-65.981,25.229c-7.586,0-15.177-0.769-22.533-2.358
	c5.127-3.438,9.917-7.285,14.408-11.537c21.246-20.711,30.859-47.426,41.448-74.395c6.304-15.952,12.479-31.996,18.79-48.018
	l1.275-3.404v-0.099l13.36-33.712c0.411-1.102,0.844-2.233,1.18-3.411h-16.997l-13.455,34.814l0.104,0.151
	c-11.203,28.447-7.794,19.474-18.792,47.984c-9.822,24.254-18.685,50.194-37.808,68.754c-17.61,16.867-41.757,25.332-65.985,25.23
	c-24.148,0.102-48.269-8.363-65.906-25.23c-19.124-18.56-28.071-44.5-37.811-68.755c-10.998-28.51-7.69-19.536-18.79-47.983v-0.151
	L12.205,70.704c-6.409-16.379,1.615-35.12,18.047-41.595c16.354-6.457,35.044,1.602,41.451,18.012
	C85.162,81.012,111.411,185.497,149.453,185.497z"/>
</svg>
